<svg width="1024" height="1024" viewBox="0 0 1024 1024" fill="none" xmlns="http://www.w3.org/2000/svg">
  <rect width="1024" height="1024" rx="232" fill="#F8F3E7"/>
  <circle cx="512" cy="560" r="268" fill="#DDCCA1"/>
  <path d="M535 214C590 214 620 171 620 120C550 120 462 173 462 264V317C481 267 506 214 535 214Z" fill="#9F581C"/>
  <path d="M342 424C365 335 432 286 512 286C592 286 659 335 682 424C686 440 674 454 658 454H366C350 454 338 440 342 424Z" fill="#9D8E52"/>
  <path d="M512 386C624 386 700 467 692 582C684 707 589 810 512 874C435 810 340 707 332 582C324 467 400 386 512 386Z" fill="#C85D36"/>
</svg>
